<?xml version="1.0" encoding="UTF-8"?>
<svg width="100px" height="100px" viewBox="0 0 100 100" version="1.1" xmlns="http://www.w3.org/2000/svg" xmlns:xlink="http://www.w3.org/1999/xlink">
    <!-- Generator: Sketch 61.2 (89653) - https://sketch.com -->
    <title>Icons/Special Icons/auto_loans_hover</title>
    <desc>Created with Sketch.</desc>
    <g id="Icons/Special-Icons/auto_loans_hover" stroke="none" stroke-width="1" fill="none" fill-rule="evenodd">
        <g id="hover" transform="translate(11.000000, 13.250178)">
            <path d="M41.7400384,9.31967397 L63.2592115,9.31967397 C61.7625742,5.97669579 61.0142555,4.30520671 61.0142555,4.30520671 C61.0142555,4.30520671 59.3738921,3.2035991 56.0931653,1.0003839 L50.3270496,-5.32907052e-15 L43.9535383,4.15983699 L41.7400384,9.31967397 Z" id="Path-13" fill="#D197E4"></path>
            <path d="M44.2407909,28.9107253 C47.1186897,30.57113 48.8339965,31.4013324 49.3867113,31.4013324 C49.9394261,31.4013324 51.7824708,30.80161 54.9158455,29.6021652 L59.1595594,31.4013324 L64.5716415,28.9107253 L54.4062162,17.2841859 L44.2407909,28.9107253 Z" id="Path-14" fill="#D197E4"></path>
            <polygon id="Path-15" fill="#831FB6" points="53.7470426 17.2841859 42.977429 28.9107253 48.3622358 30.2936051 57.0333643 20.5246005"></polygon>
            <path d="M1.85333966,32.160471 L1.84358227,43.4302154 L11.173675,43.4302154 L13.1156009,47.7090267 L36.9523519,47.7090267 L38.9485088,44.2555232 C47.1370549,44.2555232 51.231328,44.2555232 51.231328,44.2555232 C51.231328,44.2555232 51.6540937,45.406691 52.499625,47.7090267 L57.0333643,47.7090267 L54.4062162,42.1602488 L51.231328,39.8320305 C44.2284641,39.8320305 40.7270322,39.8320305 40.7270322,39.8320305 C40.7270322,39.8320305 37.4462901,37.274844 30.8848061,32.160471 L1.85333966,32.160471 Z" id="Path-16" fill="#BA63D7"></path>
            <circle id="Oval" fill="#831FB6" cx="5" cy="53.7498215" r="5"></circle>
            <circle id="Oval-Copy" fill="#831FB6" cx="45" cy="53.7498215" r="5"></circle>
        </g>
        <path d="M28.9774626,85.0863365 C29.7820486,85.0863365 30.4342944,85.7385823 30.4342944,86.5431682 C30.4342944,87.3004256 29.8565265,87.9227381 29.1177653,87.993331 L28.9774626,88 L26.2915158,88 C25.4869299,88 24.8346841,87.3477542 24.8346841,86.5431682 C24.8346841,85.7859108 25.412452,85.1635984 26.1512132,85.0930054 L26.2915158,85.0863365 L28.9774626,85.0863365 Z M73.6055018,85.0863365 C74.4100878,85.0863365 75.0623336,85.7385823 75.0623336,86.5431682 C75.0623336,87.3004256 74.4845657,87.9227381 73.7458044,87.993331 L73.6055018,88 L34.3493563,88 C33.5447703,88 32.8925245,87.3477542 32.8925245,86.5431682 C32.8925245,85.7859108 33.4702924,85.1635984 34.2090536,85.0930054 L34.3493563,85.0863365 L73.6055018,85.0863365 Z M58.3162662,78.2178602 C59.1208521,78.2178602 59.7730979,78.870106 59.7730979,79.674692 C59.7730979,80.4319494 59.19533,81.0542619 58.4565688,81.1248548 L58.3162662,81.1315238 L20.2997884,81.1315238 C19.4952024,81.1315238 18.8429566,80.479278 18.8429566,79.674692 C18.8429566,78.9174346 19.4207245,78.2951222 20.1594857,78.2245292 L20.2997884,78.2178602 L58.3162662,78.2178602 Z M79.5972293,78.2178602 C80.4018153,78.2178602 81.0540611,78.870106 81.0540611,79.674692 C81.0540611,80.4319494 80.4762932,81.0542619 79.7375319,81.1248548 L79.5972293,81.1315238 L63.6881598,81.1315238 C62.8835738,81.1315238 62.231328,80.479278 62.231328,79.674692 C62.231328,78.9174346 62.8090959,78.2951222 63.5478572,78.2245292 L63.6881598,78.2178602 L79.5972293,78.2178602 Z M56.0568717,59.5023734 C60.0540842,59.5023734 63.3003748,62.7161562 63.3003748,66.6879297 C63.3003748,68.565082 62.5752422,70.2729199 61.3884157,71.5521826 L93.4401859,71.551398 C94.2447719,71.551398 94.8970177,72.2036438 94.8970177,73.0082298 C94.8970177,73.7654872 94.3192498,74.3877997 93.5804885,74.4583926 L93.4401859,74.4650616 L6.45683177,74.4650616 C5.6522458,74.4650616 5,73.8128158 5,73.0082298 C5,72.2509724 5.57776791,71.62866 6.31652915,71.558067 L6.45683177,71.551398 L10.8386289,71.5521826 C9.65180248,70.2729199 8.92666983,68.565082 8.92666983,66.6879297 C8.92666983,62.7161562 12.1729605,59.5023734 16.1701729,59.5023734 C20.1673854,59.5023734 23.413676,62.7161562 23.413676,66.6879297 C23.413676,68.565082 22.6885434,70.2729199 21.5017169,71.5521826 L50.7253277,71.5521826 C49.5385013,70.2729199 48.8133686,68.565082 48.8133686,66.6879297 C48.8133686,62.7161562 52.0596592,59.5023734 56.0568717,59.5023734 Z M16.1701729,62.416037 C13.7756048,62.416037 11.8403334,64.3319288 11.8403334,66.6879297 C11.8403334,69.0439306 13.7756048,70.9598225 16.1701729,70.9598225 C18.5647411,70.9598225 20.5000125,69.0439306 20.5000125,66.6879297 C20.5000125,64.3319288 18.5647411,62.416037 16.1701729,62.416037 Z M56.0568717,62.416037 C53.6623035,62.416037 51.7270322,64.3319288 51.7270322,66.6879297 C51.7270322,69.0439306 53.6623035,70.9598225 56.0568717,70.9598225 C58.4514399,70.9598225 60.3867113,69.0439306 60.3867113,66.6879297 C60.3867113,64.3319288 58.4514399,62.416037 56.0568717,62.416037 Z M16.1701729,63.3897222 C17.9987455,63.3897222 19.4870062,64.8630797 19.4870062,66.6879297 C19.4870062,68.5127798 17.9987455,69.9861373 16.1701729,69.9861373 C14.3416003,69.9861373 12.8533397,68.5127798 12.8533397,66.6879297 C12.8533397,64.8630797 14.3416003,63.3897222 16.1701729,63.3897222 Z M56.0568717,63.3897222 C57.8854443,63.3897222 59.373705,64.8630797 59.373705,66.6879297 C59.373705,68.5127798 57.8854443,69.9861373 56.0568717,69.9861373 C54.2282991,69.9861373 52.7400384,68.5127798 52.7400384,66.6879297 C52.7400384,64.8630797 54.2282991,63.3897222 56.0568717,63.3897222 Z M45.3101964,64.4127087 C46.1147824,64.4127087 46.7670282,65.0649545 46.7670282,65.8695405 C46.7670282,66.6267979 46.1892603,67.2491104 45.450499,67.3197033 L45.3101964,67.3263723 L26.9168483,67.3263723 C26.1122623,67.3263723 25.4600165,66.6741265 25.4600165,65.8695405 C25.4600165,65.1122831 26.0377844,64.4899707 26.7765456,64.4193777 L26.9168483,64.4127087 L45.3101964,64.4127087 Z M25.2635136,39.2472402 C26.9136668,39.2472402 28.2277087,39.680868 29.1114057,40.8473316 L29.0173286,40.730665 L32.036,43.543 L39.1101914,43.5437836 C41.2604623,43.5437836 43.1900778,44.2440123 44.6698967,45.5985954 L44.8190973,45.7411951 L51.2000204,50.9100342 L59.5702079,50.9092866 C64.5191787,50.9092866 68.7375921,55.7482577 68.8768312,60.9015232 L68.8803793,61.1638025 C68.8803793,61.9210599 68.3026114,62.5433723 67.5638502,62.6139653 L67.4235475,62.6206343 L63.2902109,62.6206343 C62.4856249,62.6206343 61.8333791,61.9683885 61.8333791,61.1638025 L61.838,61.061 L61.8333791,60.9592052 L61.8333791,59.7316213 C61.8333791,58.9514876 61.315629,58.3930319 60.5443888,58.3300306 L60.3968752,58.3240908 L51.5102014,58.3240908 C50.7083073,58.3240908 50.1433869,58.8366563 50.0797004,59.5880109 L50.0736975,59.7316213 L50.074819,60.212686 C50.2053499,60.4310066 50.2803643,60.6863456 50.2803643,60.9592052 C50.2803643,61.7164626 49.7025964,62.338775 48.9638352,62.409368 L48.8235326,62.416037 L23.4035121,62.416037 L23.4035121,62.416037 C22.6462547,62.416037 22.0239422,61.838269 21.9533493,61.0995078 L21.9466803,60.9592052 L21.9466803,59.7316213 C21.9466803,58.9514876 21.4289302,58.3930319 20.65769,58.3300306 L20.5101764,58.3240908 L11.6235026,58.3240908 C10.8216085,58.3240908 10.2566881,58.8366563 10.1930016,59.5880109 L10.1869987,59.7316213 L10.1875292,60.0071011 C10.3184247,60.225639 10.3936655,60.4813367 10.3936655,60.7546079 C10.3936655,61.5591938 9.74141974,62.2114396 8.93683377,62.2114396 C6.80863424,62.2114396 5.10919508,60.6899516 5.00505845,58.6982186 L5,58.5040375 L5,47.2511857 C5,45.279324 6.58494031,43.6486344 8.53986633,43.5486419 L8.565,43.547 L11.6637152,40.6611934 L11.78837,40.55739 C12.9533767,39.6923846 14.0453769,39.2472402 15.3435056,39.2472402 L15.3435056,39.2472402 Z M39.1101914,46.4574471 L8.73016694,46.4574471 C8.32523262,46.4574471 7.97215049,46.7761567 7.92022622,47.1552924 L7.91366355,47.2511857 L7.91296243,57.4290855 C8.63583549,56.2569347 9.90986803,55.4809547 11.414504,55.4149924 L11.6235026,55.4104273 L20.5101764,55.4104273 C22.8875086,55.4104273 24.7403673,57.1705929 24.8547427,59.502324 L47.1656452,59.5021165 C47.2767432,57.2392752 49.0251304,55.514774 51.3012027,55.4149924 L51.5102014,55.4104273 L60.3968752,55.4104273 C62.781399,55.4104273 64.6382713,57.1812582 64.7424318,59.5235005 L64.746,59.707 L65.8120431,59.7073557 L65.7862665,59.5815848 C65.0978952,56.5472148 62.5362591,53.9494125 59.7727518,53.8274278 L59.5702079,53.8229501 L50.6835341,53.8229501 C50.3973903,53.8229501 50.1186868,53.7387151 49.8815353,53.5823269 L49.7665802,53.498176 L42.9465747,47.9740487 L42.8385897,47.8772974 C41.9560359,47.0035814 40.7819211,46.5201676 39.3912012,46.4631539 L39.1101914,46.4574471 Z M66.0714351,29.062548 L66.179114,29.1621773 L92.8750204,56.4340681 C93.4378445,57.0090356 93.4280004,57.9313979 92.8530329,58.4942221 C92.3140009,59.0218697 91.4696414,59.0461956 90.9024493,58.5734166 L90.792879,58.4722346 L79.3200642,46.754605 C79.1961312,46.7269926 79.0742822,46.6827144 78.957752,46.621102 L78.8368557,46.549594 L75.0473854,44.05904 L71.4557307,46.5320678 C70.9995771,46.8462705 70.4090293,46.8724541 69.9304767,46.6106185 L69.8029242,46.5320678 L66.2102438,44.05904 L62.4217992,46.549594 C61.9677571,46.8481265 61.3894029,46.8671808 60.9201352,46.6092717 L60.7950331,46.5320678 L57.139038,44.0153351 L52.9028421,46.3722907 C52.2411021,46.7404469 51.416392,46.5381063 50.9955394,45.9268496 L50.9215007,45.8074865 C50.7511571,45.5013035 50.7029487,45.160231 50.7608698,44.8404166 C50.6922309,44.4592059 50.7758872,44.0539441 51.0171042,43.7237698 L51.1110819,43.6079612 L64.0545517,29.2073998 C64.5837923,28.6185807 65.4775413,28.565583 66.0714351,29.062548 Z M26.9168483,49.0679108 C27.6741056,49.0679108 28.2964181,49.6456787 28.3670111,50.38444 L28.37368,50.5247426 L28.37368,52.9799103 C28.37368,53.8780451 29.0044098,54.5213467 29.8704072,54.5865747 L30.0168507,54.5920381 L39.9368587,54.5920381 C40.2825345,54.5920381 40.6942261,54.4195837 41.0533003,54.112128 L41.185255,53.990577 C41.7570389,53.4245189 42.6794421,53.4291606 43.2455002,54.0009444 C43.8115583,54.5727283 43.8069167,55.4951315 43.2351328,56.0611896 C42.3908458,56.897022 41.2994369,57.4309644 40.1776318,57.4984419 L39.9368587,57.5057016 L30.0168507,57.5057016 C27.5728053,57.5057016 25.5738776,55.6808966 25.4647119,53.1946131 L25.4600165,52.9799103 L25.4600165,50.5247426 C25.4600165,49.7201566 26.1122623,49.0679108 26.9168483,49.0679108 Z M20.7168433,49.0679108 C21.5214292,49.0679108 22.173675,49.7201566 22.173675,50.5247426 C22.173675,51.9327969 21.1560642,53.1182953 19.6524614,53.2041785 L19.4768423,53.2091582 L12.6568368,53.2091582 C11.1932539,53.2091582 9.96000399,52.1239135 9.96000399,50.5247426 C9.96000399,49.7201566 10.6122498,49.0679108 11.4168358,49.0679108 C12.1267646,49.0679108 12.7180894,49.5757147 12.8473987,50.2479106 L12.8532945,50.2962225 L19.2788938,50.2962225 L19.2862803,50.2479106 C19.406969,49.6205277 19.9301245,49.1363486 20.5765406,49.0745798 L20.7168433,49.0679108 Z M65.1826918,32.3101774 L57.4886047,40.8698097 C57.6383142,40.8976275 57.7843769,40.9490381 57.9210101,41.0237654 L58.0486369,41.1023441 L61.6406482,43.5763431 L65.4297619,41.0848179 C65.883804,40.7862854 66.4621582,40.7672311 66.9314259,41.0251402 L67.0565281,41.1023441 L70.6293002,43.5637172 L73.955,41.272 L65.1826918,32.3101774 Z M25.2635136,42.1609037 L15.3435056,42.1609037 C14.7521089,42.1609037 14.2292838,42.3740289 13.5253035,42.896727 L13.5836528,42.8547258 L12.844,43.543 L27.761,43.543 L26.9570608,42.7929236 L26.8689968,42.7034788 L26.7288867,42.5374176 C26.4884714,42.2931896 26.0242083,42.1609037 25.2635136,42.1609037 L25.2635136,42.1609037 Z M83.1945985,20.6438685 C87.6458598,20.6438685 91.257993,24.2335262 91.257993,28.6661555 C91.257993,33.0987848 87.6458598,36.6884425 83.1945985,36.6884425 C78.7433372,36.6884425 75.131204,33.0987848 75.131204,28.6661555 C75.131204,24.2335262 78.7433372,20.6438685 83.1945985,20.6438685 Z M83.1945985,23.5575321 C80.3484521,23.5575321 78.0448676,25.8467832 78.0448676,28.6661555 C78.0448676,31.4855278 80.3484521,33.7747789 83.1945985,33.7747789 C86.0407448,33.7747789 88.3443294,31.4855278 88.3443294,28.6661555 C88.3443294,25.8467832 86.0407448,23.5575321 83.1945985,23.5575321 Z M63.6876471,12 C66.1895407,12.2096372 68.4829431,13.0481859 70.1508721,14.7252833 C73.2782391,15.3541948 75.5716415,18.2891153 75.5716415,21.8529473 C75.5716415,22.4818588 74.9461681,23.1107703 74.3206947,23.1107703 C73.6952214,23.1107703 73.069748,22.4818588 73.069748,21.8529473 C73.069748,19.3373012 71.1933278,17.4505666 68.6914342,17.4505666 C68.274452,17.4505666 67.6489786,17.4505666 67.2319963,17.6602038 C66.6065229,17.8698409 65.7725584,17.4505666 65.5640673,16.821655 C65.147085,16.1927435 65.5640673,15.563832 65.9810495,15.3541948 C65.147085,14.9349205 64.3131205,14.7252833 63.479156,14.7252833 C61.8112269,14.7252833 59.9348067,15.3541948 58.2668777,16.1927435 C60.5602801,17.0312922 62.019718,19.127664 62.019718,21.4336729 C62.019718,22.0625845 61.3942447,22.691496 60.7687713,22.691496 C60.1432979,22.691496 59.5178245,22.0625845 59.5178245,21.4336729 C59.5178245,19.7565755 58.2668777,18.4987525 56.5989487,18.4987525 C54.9310196,18.4987525 53.6800728,19.7565755 53.6800728,21.4336729 C53.6800728,22.0625845 53.0545994,22.691496 52.429126,22.691496 C51.8036527,22.691496 51.1781793,22.0625845 51.1781793,21.4336729 C51.1781793,18.9180268 52.8461083,16.821655 55.1395107,16.1927435 C57.224422,13.4674602 60.351789,12 63.6876471,12 Z" id="Combined-Shape" fill="#1F1B50"></path>
    </g>
</svg>