<?xml version="1.0" encoding="UTF-8"?>
<svg width="100px" height="100px" viewBox="0 0 100 100" version="1.1" xmlns="http://www.w3.org/2000/svg" xmlns:xlink="http://www.w3.org/1999/xlink">
    <g id="Icons/Special-Icons/shaking_hands" stroke="none" stroke-width="1" fill="none" fill-rule="evenodd">
        <path d="M51.5669766,6.47372397 L51.810258,6.62396935 C52.0281573,6.75226709 52.7321934,7.16685214 52.9972692,7.32211914 L54.1797933,8.00843123 C54.3072806,8.08162618 54.4344034,8.154326 54.5620986,8.22705618 C55.8806352,8.97804275 57.147543,9.66734107 58.4220319,10.3179212 C60.6728885,11.4669016 62.808327,12.4225625 64.8133193,13.1479549 C66.021387,13.5850255 67.1649357,13.9316823 68.1930676,14.1712512 C70.0563657,14.5464889 71.2906129,16.0563365 71.3763967,17.937041 L71.3811757,18.1474956 L71.3811757,34.1691467 C71.3811757,38.9956015 69.7967452,43.666705 66.8375817,47.3138462 L66.5469266,47.6635696 L66.4691342,47.748157 L65.784,48.438 L67.153,48.438 L75.7071345,41.9797016 C76.3662134,41.4819727 77.3012192,41.616469 77.7955284,42.2801075 C78.2607606,42.9047085 78.1698071,43.77542 77.6080185,44.2906553 L77.4971864,44.3829493 L69.8765632,50.1388963 C69.8670488,50.2114824 69.8523869,50.2824343 69.8329588,50.3513678 L82.6097736,67.3630037 L92.6089542,59.7569241 C93.2276101,59.2862615 94.0926564,59.374756 94.6063406,59.9386005 L94.6983929,60.0498713 C95.1658218,60.6728072 95.0779353,61.543838 94.5179648,62.0610759 L94.4074584,62.1537651 L83.2196339,70.6652672 C82.6012159,71.1357489 81.7365404,71.047525 81.2227604,70.4841519 L81.1306845,70.3729717 L66.91,51.442 L43.587,51.442 L37.4020624,55.4459749 C37.1211595,55.634539 37.0787288,55.675825 37.0727677,55.8686024 L37.0718473,61.9566978 C37.0718473,62.1269177 37.3001221,62.2910992 37.4252074,62.2599619 C39.2217088,61.7666174 40.2823874,60.5837363 40.7811188,58.8308888 L40.8456608,58.5883425 L40.8776717,58.4776547 C41.3061951,57.1831909 42.5183698,56.2836882 43.8432043,56.2045898 L44.0331603,56.1989169 L50.2486183,56.1989169 C51.5826608,56.1989169 52.8359954,57.0395803 53.3376307,58.295464 L53.4041069,58.4776547 C53.8224185,59.7412713 55.5648142,60.8584734 56.8028417,60.9493798 L56.961313,60.9553446 L59.9447329,60.9553446 C60.6174159,60.9553446 61.0618342,61.1019876 61.8728373,61.4997958 L62.1035558,61.6145947 L62.290579,61.7266227 L77.9664359,72.7506842 C80.3892777,74.4932581 81.0231999,77.6847971 79.3077247,80.1030775 C77.6238964,82.4767456 74.5777914,83.1451698 72.2207719,81.6016421 L72.0357018,81.4724697 C71.9362075,82.2977385 71.6308463,83.1145059 71.10332,83.858152 C69.4194917,86.2318201 66.3733868,86.9002442 64.0102549,85.3524473 L63.9709748,85.3248594 C63.8192475,85.9439882 63.5471284,86.549247 63.1475337,87.1125498 C61.4637054,89.486218 58.4176005,90.1546421 56.0585516,88.6097025 L55.8754654,88.4823193 C55.7759236,89.3074597 55.470575,90.1240915 54.9431291,90.8676243 C53.2593008,93.2412925 50.2131958,93.9097166 47.8740834,92.3784157 L47.6808383,92.2457047 L47.6068485,92.1957487 C46.6947486,93.2982776 45.3210303,94 43.784542,94 C41.472707,94 39.5293653,92.4113784 38.9724836,90.2591446 C37.5360811,90.7125345 35.9105417,90.4575134 34.5042545,89.4419486 L34.5042545,89.4419486 L34.3085884,89.2945913 L34.1279313,89.1457721 C33.0895396,88.2744593 32.4792078,87.005536 32.3362876,85.6819213 C31.0673062,85.8364793 29.7417054,85.4966688 28.6655773,84.6192957 L28.6655773,84.6192957 L28.4888591,84.4683272 L28.3938873,84.3758792 C27.2349968,83.3756724 26.6088618,82.0681446 26.5140993,80.7296319 C23.8214851,80.6688613 21.6575113,78.4515426 21.6575113,75.7253042 C21.6575113,74.2395967 22.3001857,72.9050322 23.320879,71.9880972 L21.004,68.281 L18.8693155,71.1239866 C18.4017301,71.7464269 17.5459271,71.8989404 16.8990595,71.4979705 L16.7803661,71.4162821 L5.59254158,62.90478 C4.93521967,62.4047009 4.80496385,61.4627556 5.30160708,60.8008862 C5.76903599,60.1779504 6.62518661,60.0251265 7.27230636,60.4262219 L7.39104579,60.507939 L17.389232,68.1140186 L30.2547329,50.9878749 L22.5028136,45.1339641 C21.882504,44.6655134 21.7276952,43.8039872 22.1237376,43.1509724 L22.2044716,43.0311224 C22.6697038,42.4065215 23.5253108,42.2506416 24.1738391,42.6494239 L24.2928655,42.7307165 L31.851,48.438 L33.718,48.438 L33.0336292,47.748157 L32.9558368,47.6635696 C29.9081991,44.0833944 28.22853,39.4512371 28.1265268,34.6357088 L28.1215877,34.1691467 L28.1215877,18.1474956 C28.1215877,16.2600386 29.5170235,14.6207673 31.2541194,14.1835579 C35.9813526,13.0411731 41.1668019,10.4568819 47.6808383,6.63386101 C48.8654118,5.83868199 50.4112817,5.79892304 51.5669766,6.47372397 Z M43.784542,86.9905276 C42.6860771,86.9905276 41.7955954,87.8871698 41.7955954,88.993234 C41.7955954,90.0992982 42.6860771,90.9959404 43.784542,90.9959404 C44.5334953,90.9959404 45.1857622,90.579113 45.5250174,89.96328 L45.5252894,89.9513767 C45.5326294,89.6857772 45.6100084,89.4190035 45.763202,89.1801331 C45.7705745,89.1190929 45.7734885,89.0565061 45.7734885,88.993234 C45.7734885,87.8871698 44.8830068,86.9905276 43.784542,86.9905276 Z M38.069,51.442 L33.639704,51.4432457 C33.6330489,51.4548045 33.6262249,51.4663018 33.6192313,51.4777344 L33.5377965,51.5975993 L22.928,65.72 L26.0740408,70.7494698 C26.1863365,70.7368928 26.299761,70.7280815 26.4141868,70.723164 L26.6298778,70.7185382 C28.6193804,70.7185382 30.3359823,71.8950489 31.1309043,73.594803 C32.8746962,72.6290745 35.161331,72.6798116 36.8008649,73.8885952 L36.8008649,73.8885952 L37.0323434,74.0707364 C37.7343553,74.6597935 38.2407212,75.4305797 38.5392816,76.277135 C40.3134544,75.1304747 42.7730592,75.1128294 44.5080329,76.3919782 L44.5080329,76.3919782 L44.7395114,76.5741194 C46.8655175,78.3580478 47.1971575,81.8087029 45.3966965,83.9830091 L45.3966965,83.9830091 L45.2097993,84.1951798 C47.2613795,84.8121638 48.7569084,86.7268409 48.7569084,88.993234 C48.7569084,89.1127079 48.7527524,89.2312044 48.7445782,89.3485849 L49.3753289,89.7736885 C50.3999347,90.510613 51.7184022,90.2450952 52.5154205,89.1215501 C53.2154618,88.1347122 53.0046363,86.8771502 52.0186121,86.0745509 L51.8793621,85.9679937 L49.3931788,84.2156256 C48.940992,83.8969051 48.7180839,83.3713211 48.7622885,82.8547494 C48.7349266,82.5209594 48.8182223,82.1764005 49.0221461,81.8798062 C49.4635041,81.2378787 50.3126202,81.0494185 50.9757101,81.4231333 L51.0977145,81.4998194 L57.5797335,86.018614 C58.6043394,86.7555385 59.9228068,86.4900207 60.7198251,85.3664757 C61.2019225,84.68687 61.2520265,83.8788691 60.919548,83.1830309 L53.1243642,77.7081742 C52.6716833,77.3901655 52.4479599,76.8649329 52.4913629,76.3482922 C52.4640634,76.0188102 52.5445944,75.6777991 52.7435393,75.382589 C53.1789202,74.7365363 54.0262502,74.5400941 54.6927796,74.9075529 L54.8154904,74.9830875 L61.8062449,79.7601566 C62.3279439,80.1353767 62.7666997,80.5777779 63.1169167,81.0651748 L65.5355198,82.7642161 C66.5601257,83.5011406 67.8785931,83.2356228 68.6756114,82.1120778 C69.3756527,81.1252398 69.1648272,79.8676779 68.1686518,79.0578508 L68.0279537,78.9502625 L57.5859842,71.4401136 L57.531,71.397 L57.4917428,71.3665658 C57.4875073,71.3629807 57.4832959,71.3593758 57.4791088,71.3557514 L57.5859842,71.4401136 C57.5312347,71.4007363 57.479921,71.3583182 57.4321076,71.3132508 C57.4150638,71.2972263 57.3985382,71.2808973 57.3824545,71.2642494 C57.3279435,71.2078791 57.2778829,71.1470017 57.2331762,71.0830999 C57.2245609,71.0707747 57.2163158,71.0586004 57.2082618,71.0463224 C57.1916124,71.0209767 57.1755649,70.9948012 57.1603662,70.968217 C57.1301977,70.9153822 57.1034703,70.8612027 57.0801132,70.8057537 C57.0688391,70.7790641 57.0582712,70.7517952 57.048509,70.7242677 C57.0270315,70.6635982 57.0095275,70.6020726 56.9959541,70.5397059 C56.9919547,70.5213409 56.9883332,70.5030731 56.9850483,70.484745 C56.9803737,70.4586684 56.9763863,70.4325237 56.9730823,70.4062846 C56.9710846,70.3903851 56.9692922,70.374041 56.9677651,70.3576681 C56.9651434,70.3296446 56.963324,70.3018893 56.9622683,70.2740835 C56.9612822,70.2477164 56.9609683,70.2210199 56.9613608,70.1943091 C56.9615989,70.1767399 56.9621533,70.1594016 56.9630068,70.1420644 C56.9641337,70.1195872 56.965759,70.096907 56.9678988,70.0742489 C56.9741331,70.0078982 56.9848608,69.9414853 57.0001211,69.8757067 C57.0074891,69.8439856 57.0158421,69.8126141 57.0252427,69.7814444 C57.0298656,69.7661486 57.034653,69.7511486 57.0396861,69.7362002 C57.0482272,69.7107579 57.0576795,69.6849916 57.0678741,69.6594138 C57.0749583,69.6417165 57.082216,69.6244681 57.089817,69.6073138 C57.1025325,69.5785237 57.116414,69.5496741 57.1312907,69.5211471 C57.138292,69.5077974 57.1452858,69.4948577 57.1524876,69.481988 C57.1693175,69.4518374 57.1875405,69.4217425 57.2069389,69.3921065 C57.2130557,69.3827877 57.2189887,69.3739277 57.2250283,69.3651098 C57.2318181,69.3552554 57.2354745,69.3500321 57.2391686,69.3448246 L57.276,69.297 L57.3122111,69.2499312 C57.3160311,69.2453554 57.3198739,69.2408077 57.323739,69.236288 L57.2391686,69.3448246 C57.2763611,69.292395 57.316285,69.2430944 57.3586059,69.1969789 C57.3766525,69.1772534 57.3955656,69.1577343 57.4149111,69.1388236 C57.4334864,69.1207042 57.4523525,69.1032016 57.4715853,69.0862603 C57.4883504,69.0714733 57.5052937,69.0572194 57.5224988,69.0433881 C57.5348908,69.0334254 57.5480856,69.0231671 57.561423,69.0131541 C57.6216151,68.9680085 57.6842395,68.9281049 57.7491265,68.8932155 C57.7665261,68.8838303 57.7844334,68.8746606 57.802496,68.865869 C57.8285478,68.8532199 57.8546926,68.841427 57.8811201,68.8304117 C57.8862395,68.8282519 57.8915366,68.8260792 57.8968447,68.8239377 C57.9333622,68.8092346 57.9702106,68.7960412 58.0074806,68.784325 C58.0236448,68.7792214 58.040276,68.7743072 58.0569812,68.7696862 C58.0792148,68.7635526 58.1013022,68.7579868 58.1235001,68.7529302 C58.1511874,68.7466158 58.1791707,68.7410809 58.2072877,68.7363525 C58.2256119,68.733264 58.2442913,68.7304804 58.2630198,68.7280524 C58.2860474,68.7250825 58.3087539,68.7226756 58.3315113,68.7207913 C58.3524196,68.7190384 58.3738367,68.7177213 58.3952844,68.7168682 C58.4224751,68.7158162 58.4491869,68.7154835 58.4759132,68.7158726 C58.4930268,68.716092 58.5107295,68.7166588 58.5284311,68.7175439 C58.5596823,68.7191417 58.5903798,68.7216454 58.6210239,68.7251138 C58.6342432,68.7265839 58.6479208,68.7283218 58.6615844,68.730253 C58.6870372,68.733876 58.7120668,68.7380767 58.7370215,68.7429324 C58.7589247,68.7471796 58.780929,68.7519845 58.8028595,68.7573053 C58.822947,68.7621828 58.8430094,68.7674966 58.8629942,68.7732464 C58.8868265,68.7801047 58.9107187,68.7876404 58.9344788,68.7958105 C58.9536174,68.8023807 58.9723913,68.8092658 58.9910681,68.8165519 C59.0151413,68.82596 59.0394179,68.8361777 59.063506,68.8470878 C59.0813669,68.8551514 59.0987527,68.8634402 59.1160268,68.8720951 C59.1367737,68.8825255 59.1573618,68.8934498 59.1777749,68.9049061 L59.1913532,68.9125866 C59.1939686,68.9140908 59.196581,68.9156038 59.1991904,68.9171256 L59.259,68.956 L59.2999158,68.9813715 L59.3200617,68.9956097 L59.344,69.012 L73.7399244,79.0091417 C74.7645303,79.7460661 76.0829978,79.4805484 76.8800161,78.3570033 C77.5800573,77.3701653 77.3692318,76.1126034 76.3843483,75.3108071 L76.2452609,75.2043645 L60.6736818,64.253802 L60.6330509,64.2335209 C60.2476168,64.0432116 60.0683013,63.9734245 59.9734052,63.9613702 L56.961313,63.9594042 C54.5137769,63.9594042 51.447573,62.0671168 50.5737863,59.4276217 C50.542538,59.3332284 50.4275998,59.2401537 50.3151212,59.2117508 L50.2486183,59.2029765 L44.0331603,59.2029765 C43.9251115,59.2029765 43.7973731,59.280319 43.7360949,59.3716508 L43.7129399,59.4172661 L43.6649827,59.6018593 C42.9305131,62.2380107 41.2350786,64.2203169 38.4788671,65.0786112 L38.179495,65.1662488 C36.2572561,65.6501331 34.2124666,64.2343593 34.0938477,62.1481646 L34.0884274,61.9566978 L34.0884274,55.9485786 C34.0884274,54.7369418 34.5551722,53.8197163 35.571029,53.0711465 L35.7679572,52.9327354 L38.069,51.442 Z M42.6103669,78.7254723 C41.7281607,78.192487 40.366476,78.3964031 39.6784751,79.2265815 L39.6784751,79.2265815 L37.692,81.475 L37.6895285,81.4796262 L35.7352752,83.6930716 L35.6609967,83.794099 L35.6609967,83.794099 L35.6360873,83.823433 C35.0379014,84.7001688 35.2124663,86.1453985 36.027134,86.8290661 L36.027134,86.8290661 L36.1696186,86.9469107 C37.2158325,87.7676642 38.3816059,87.616824 39.0900312,86.6181672 L39.0900312,86.6181672 L39.1889675,86.49331 L43.1358153,82.0235388 C43.8453974,81.1661495 43.6957098,79.6086763 42.8660573,78.9115505 L42.8660573,78.9115505 L42.740345,78.8114748 Z M34.903199,76.2220893 C34.0209927,75.689104 32.659308,75.8930201 31.9713071,76.7231985 L31.9713071,76.7231985 L31.2768579,77.5105216 C30.9330428,78.4173771 30.3349328,79.1977458 29.5703247,79.7632237 C29.3317979,80.5656387 29.589533,81.4518123 30.3878879,82.1424748 L30.3878879,82.1424748 L30.50261,82.2522742 C31.3406914,83.0017177 32.6820257,82.834118 33.3718097,81.8617395 L33.3718097,81.8617395 L33.4707461,81.7368823 L35.4404812,79.5056939 C36.1365325,78.645359 35.9838982,77.1013915 35.1588893,76.4081675 L35.1588893,76.4081675 L35.033177,76.3080918 Z M26.6298778,73.7225978 C26.4377549,73.7225978 26.2519944,73.7500265 26.0762478,73.801207 L26.181589,73.7419733 C26.0484599,73.8263752 25.9071685,73.8869743 25.76263,73.9248956 C25.0983698,74.2473911 24.6409312,74.9325578 24.6409312,75.7253042 C24.6409312,76.8313684 25.5314129,77.7280106 26.6298778,77.7280106 C26.8653695,77.7280106 27.0913024,77.686801 27.3009518,77.611153 C27.4334267,77.3938448 27.5845222,77.1833444 27.7525247,76.9804546 L27.7525247,76.9804546 L28.59696,76.0232752 C28.6113617,75.9260581 28.6188243,75.8265587 28.6188243,75.7253042 C28.6188243,74.61924 27.7283426,73.7225978 26.6298778,73.7225978 Z M16.6851449,60.454668 C17.9209179,60.454668 18.9227098,61.4633905 18.9227098,62.7077127 C18.9227098,63.9520349 17.9209179,64.9607574 16.6851449,64.9607574 C15.4493719,64.9607574 14.44758,63.9520349 14.44758,62.7077127 C14.44758,61.4633905 15.4493719,60.454668 16.6851449,60.454668 Z M83.0662368,60.454668 C84.3020098,60.454668 85.3038017,61.4633905 85.3038017,62.7077127 C85.3038017,63.9520349 84.3020098,64.9607574 83.0662368,64.9607574 C81.8304638,64.9607574 80.8286719,63.9520349 80.8286719,62.7077127 C80.8286719,61.4633905 81.8304638,60.454668 83.0662368,60.454668 Z M83.0662368,61.9566978 C82.6543125,61.9566978 82.3203818,62.2929386 82.3203818,62.7077127 C82.3203818,63.1224868 82.6543125,63.4587276 83.0662368,63.4587276 C83.4781611,63.4587276 83.8120918,63.1224868 83.8120918,62.7077127 C83.8120918,62.2929386 83.4781611,61.9566978 83.0662368,61.9566978 Z M16.6851449,61.9566978 C16.2732206,61.9566978 15.9392899,62.2929386 15.9392899,62.7077127 C15.9392899,63.1224868 16.2732206,63.4587276 16.6851449,63.4587276 C17.0970692,63.4587276 17.4309998,63.1224868 17.4309998,62.7077127 C17.4309998,62.2929386 17.0970692,61.9566978 16.6851449,61.9566978 Z M49.3674095,9.11817273 L49.2599195,9.18104698 C42.4101821,13.2043698 37.0634568,15.8690367 31.964037,17.1012955 C31.5548993,17.2042876 31.174024,17.6202464 31.113386,18.034728 L31.1050075,18.1474956 L31.1050075,34.1691467 C31.1050075,38.3019179 32.451409,42.2856226 34.9490205,45.3804049 L35.1903038,45.6716908 L37.937,48.438 L42.71,48.438 L42.7292702,48.426646 C43.2421993,48.0946247 43.8810946,48.1190263 44.3591316,48.4370662 L61.564,48.438 L64.3114651,45.6716908 L64.5537428,45.3804049 C66.962154,42.3961505 68.3001159,38.5853344 68.3926127,34.6113395 L68.3977558,34.1691467 L68.3977558,18.1474956 C68.3977558,17.6239534 68.1641169,17.2809091 67.6979845,17.1408312 L67.565094,17.1076772 C66.3725701,16.8305755 65.1177873,16.450199 63.8044987,15.9750603 C61.6711238,15.20322 59.4263746,14.1986398 57.0730177,12.9973368 C55.7546783,12.3243725 54.4487977,11.61387 53.093239,10.841797 L52.3101248,10.3922157 L50.1670215,9.13338967 C49.94943,8.98732509 49.655269,8.9710957 49.3674095,9.11817273 Z M59.7684931,26.8608711 C60.3083196,27.4170732 60.3325178,28.2876492 59.847943,28.8720378 L59.7442465,28.9849217 L48.8050403,39.7494685 C48.2571437,40.2886172 47.4009819,40.3175578 46.8199929,39.8396665 L46.7076369,39.7373315 L40.9894155,33.9795506 C40.4068665,33.3929715 40.4068665,32.4419389 40.9894155,31.8553597 C41.5355551,31.3054418 42.3998145,31.2710719 42.9857191,31.7522501 L43.0990119,31.8553597 L47.7743688,36.5633822 L57.659036,26.8364567 C58.2482421,26.2566582 59.1926782,26.2675889 59.7684931,26.8608711 Z M37.3204656,18.1474956 C38.1443142,18.1474956 38.8121755,18.8199772 38.8121755,19.6495254 C38.8121755,20.3814796 38.2922143,20.9911503 37.6039252,21.1244713 L37.4606863,21.1445457 L37.0349603,21.2848174 C36.883341,21.3323503 36.7690773,21.3622796 36.6558229,21.3799684 L36.6034503,21.3858718 L36.5296608,21.42392 C36.3008741,21.5620361 36.1175511,21.8652772 36.0831744,22.2661128 L36.077374,22.4032466 L36.077374,25.1569679 C36.077374,25.9865161 35.4095127,26.6589977 34.585664,26.6589977 C33.8102771,26.6589977 33.1730658,26.0633046 33.1007827,25.3016234 L33.0939541,25.1569679 L33.0939541,22.4032466 C33.0939541,20.5121841 34.2571918,18.872385 35.9641995,18.4426807 L36.0834825,18.4178158 L36.1878284,18.4032369 L36.3515088,18.3497439 C36.826856,18.1901987 36.9823584,18.1474956 37.3204656,18.1474956 Z M43.3784396,17.2254291 C43.7468759,17.9673996 43.4481993,18.8696284 42.7113267,19.2406136 C42.4835612,19.3552841 42.3158455,19.4255289 42.0830972,19.5077006 L41.6875308,19.6446942 C41.6601511,19.6549691 41.6353021,19.6647752 41.6114577,19.6747339 L41.4682351,19.7412902 C40.7313624,20.1122754 39.8353325,19.8115324 39.4668962,19.069562 C39.0984599,18.3275916 39.3971365,17.4253628 40.1340091,17.0543776 C40.3617746,16.939707 40.5294903,16.8694622 40.7622386,16.7872905 L41.157805,16.6502969 C41.1851847,16.640022 41.2100337,16.630216 41.2338781,16.6202573 L41.3771007,16.553701 C42.1139734,16.1827158 43.0100033,16.4834587 43.3784396,17.2254291 Z" id="Combined-Shape" fill="#1F1B50"></path>
    </g>
</svg>