<?xml version="1.0" encoding="UTF-8"?>
<svg width="100px" height="100px" viewBox="0 0 100 100" version="1.1" xmlns="http://www.w3.org/2000/svg" xmlns:xlink="http://www.w3.org/1999/xlink">
    <!-- Generator: Sketch 61.2 (89653) - https://sketch.com -->
    <title>Icons/Special Icons/credit_cards_hover</title>
    <desc>Created with Sketch.</desc>
    <g id="Icons/Special-Icons/credit_cards_hover" stroke="none" stroke-width="1" fill="none" fill-rule="evenodd">
        <g id="hover" transform="translate(6.421232, 15.045872)">
            <polygon id="Path-8" fill="#DCE2FF" points="0 16.9673689 66.5542621 1.77635684e-15 70.2037678 9.71745 1.58292859 26.2582035"></polygon>
            <path d="M85.7929181,20.511201 L87.3151577,24.6255232 L87.3151577,68.1477813 L83.6623677,69.7437217 L19.628989,69.7437217 L15.8904277,68.1477813 L15.8904277,33.1747432 L17.3422707,20.511201 L85.7929181,20.511201 Z M79.5787677,51.9541279 L59.5787677,51.9541279 L59.5787677,62.9541279 L79.5787677,62.9541279 L79.5787677,51.9541279 Z" id="Combined-Shape" fill="#BAC5FF"></path>
            <rect id="Rectangle" fill="#526EFF" x="16.5787677" y="30.9541279" width="71" height="9"></rect>
            <polygon id="Path-10" fill="#DCE2FF" points="4.38741359 36.3427182 16.5787677 32.9812521 15.8904277 60.9797435 11.2062585 62.9541279"></polygon>
            <rect id="Rectangle" fill="#DCE2FF" x="59.5787677" y="51.9541279" width="15" height="11"></rect>
        </g>
        <path d="M89.6372394,33.8721116 C92.6119949,33.8721116 95,36.2776865 95,39.2743288 L95,39.2743288 L95,80.8199519 C95,83.8000662 92.6341452,86 89.6372394,86 L89.6372394,86 L26.3404139,86 C23.3656585,86 20.9776533,83.5944251 20.9776533,80.5977828 L20.9776533,80.5977828 L20.9776533,39.2743288 C20.9776533,36.2776865 23.3656585,33.8721116 26.3404139,33.8721116 L26.3404139,33.8721116 Z M92.214,57.118 L23.763,57.118 L23.763503,80.5977828 C23.763503,81.9888788 24.8181792,83.1048185 26.1760608,83.1886021 L26.3404139,83.1936534 L89.6372394,83.1936534 C91.1431566,83.1936534 92.2141504,82.19777 92.2141504,80.8199519 L92.2141504,80.8199519 L92.214,57.118 Z M85.8879501,65.864463 C87.5938728,65.864463 89.0452464,67.2046774 89.0452464,69.0449892 L89.0452464,69.0449892 L89.0452464,76.8209079 C89.0452464,78.6612197 87.5938728,80.0014341 85.8879501,80.0014341 L85.8879501,80.0014341 L67.36205,80.0014341 C65.6561272,80.0014341 64.2047537,78.6612197 64.2047537,76.8209079 L64.2047537,76.8209079 L64.2047537,69.0449892 C64.2047537,67.3265151 65.5351794,65.864463 67.36205,65.864463 L67.36205,65.864463 Z M76.8277757,17.8419905 L76.8720323,18.0438437 L79.7391359,29.3744682 C79.9291536,30.1254072 79.4788834,30.8893367 78.7334291,31.0807525 C78.031825,31.2609086 77.3187979,30.8697161 77.078921,30.1970073 L77.0396071,30.0676462 L75.969,25.836 L51.8233036,31.9703129 C51.0773647,32.1598032 50.3201714,31.7042634 50.1320651,30.9528362 C49.9550238,30.2456106 50.3451856,29.5283424 51.0135936,29.2884258 L51.1421103,29.2491543 L75.282,23.117 L74.1563927,18.6656176 C73.9052771,17.4008015 72.657422,16.6279121 71.3787334,16.8348079 L71.2252046,16.8643696 L9.63151379,32.2078274 C8.37593561,32.4607906 7.60869119,33.7178267 7.81370894,35.0044327 L7.8430089,35.1589049 L8.976,39.748 L16.9527972,37.6927616 C17.6980885,37.5007029 18.4568237,37.9536319 18.6474796,38.7044067 C18.8269205,39.4110183 18.4391958,40.1296263 17.771606,40.3718439 L17.6432233,40.4115578 L9.648,42.471 L11.45,49.775 L16.7185591,48.3604818 C17.4181506,48.1725514 18.1354121,48.5558082 18.3826304,49.2258144 L18.4233565,49.3547315 C18.6099142,50.0594703 18.2294566,50.7820091 17.564344,51.0310462 L17.4363685,51.0720719 L12.123,52.499 L17.7671601,75.3697429 C17.9512207,76.1114024 18.0637435,76.3645916 18.247482,76.5102064 L18.2912124,76.5420736 C18.9313013,76.9719392 19.1042661,77.8431265 18.6775402,78.4879249 C18.2508142,79.1327233 17.3859899,79.3069607 16.745901,78.8770951 C15.854336,78.2783453 15.4644163,77.5632094 15.1268422,76.2933231 L15.0640508,76.0486114 L8.793,50.637 L6.46862111,41.8575652 C6.40762959,41.6271642 6.40723991,41.3949746 6.4575199,41.1780774 L5.13147997,35.801845 C4.51792721,33.0205435 6.10265347,30.1796467 8.82287537,29.5145198 L9.02392704,29.4697675 L70.588625,14.1324747 C73.3496124,13.5144077 76.1697599,15.1107936 76.8277757,17.8419905 Z M85.8879501,68.6708096 L67.36205,68.6708096 C67.1304871,68.6708096 66.9906033,68.8245329 66.9906033,69.0449892 L66.9906033,69.0449892 L66.9906033,76.8209079 C66.9906033,77.0541745 67.1432038,77.1950875 67.36205,77.1950875 L67.36205,77.1950875 L85.8879501,77.1950875 C86.1067962,77.1950875 86.2593967,77.0541745 86.2593967,76.8209079 L86.2593967,76.8209079 L86.2593967,69.0449892 C86.2593967,68.8117226 86.1067962,68.6708096 85.8879501,68.6708096 L85.8879501,68.6708096 Z M43.5430355,66.0866321 C44.3123266,66.0866321 44.9359603,66.7148542 44.9359603,67.4898054 C44.9359603,68.2191713 44.3835374,68.8185625 43.6771834,68.8865554 L43.5430355,68.8929787 L27.4431461,68.8929787 C26.6738549,68.8929787 26.0502212,68.2647566 26.0502212,67.4898054 C26.0502212,66.7604396 26.6026441,66.1610483 27.3089981,66.0930555 L27.4431461,66.0866321 L43.5430355,66.0866321 Z M53.4676248,66.0866321 C54.236916,66.0866321 54.8605497,66.7148542 54.8605497,67.4898054 C54.8605497,68.2191713 54.3081267,68.8185625 53.6017728,68.8865554 L53.4676248,68.8929787 L49.4977891,68.8929787 C48.728498,68.8929787 48.1048643,68.2647566 48.1048643,67.4898054 C48.1048643,66.7604396 48.6572872,66.1610483 49.3636411,66.0930555 L49.4977891,66.0866321 L53.4676248,66.0866321 Z M37.5882818,60.0880662 C38.357573,60.0880662 38.9812067,60.7162883 38.9812067,61.4912395 C38.9812067,62.2206054 38.4287838,62.8199966 37.7224298,62.8879895 L37.5882818,62.8944128 L27.4431461,62.8944128 C26.6738549,62.8944128 26.0502212,62.2661907 26.0502212,61.4912395 C26.0502212,60.7618737 26.6026441,60.1624824 27.3089981,60.0944896 L27.4431461,60.0880662 L37.5882818,60.0880662 Z M53.4676248,60.0880662 C54.236916,60.0880662 54.8605497,60.7162883 54.8605497,61.4912395 C54.8605497,62.2206054 54.3081267,62.8199966 53.6017728,62.8879895 L53.4676248,62.8944128 L43.5430355,62.8944128 C42.7737443,62.8944128 42.1501106,62.2661907 42.1501106,61.4912395 C42.1501106,60.7618737 42.7025336,60.1624824 43.4088875,60.0944896 L43.5430355,60.0880662 L53.4676248,60.0880662 Z M92.2132217,46.8982371 L23.9831208,46.8982371 L23.9831208,54.3116694 L92.2132217,54.3116694 L92.2132217,46.8982371 Z M89.6372394,36.6784582 L26.3404139,36.6784582 C24.9042407,36.6784582 23.763503,37.8275889 23.763503,39.2743288 L23.763503,39.2743288 L23.763,44.091 L92.214,44.091 L92.2141504,39.2743288 C92.2141504,37.8832328 91.1594742,36.7672931 89.8015925,36.6835094 L89.6372394,36.6784582 Z" id="Combined-Shape" fill="#1F1B50"></path>
    </g>
</svg>