<?xml version="1.0" encoding="UTF-8"?>
<svg width="100px" height="100px" viewBox="0 0 100 100" version="1.1" xmlns="http://www.w3.org/2000/svg" xmlns:xlink="http://www.w3.org/1999/xlink">
    <!-- Generator: Sketch 61.2 (89653) - https://sketch.com -->
    <title>Icons/Special Icons/financial_planing</title>
    <desc>Created with Sketch.</desc>
    <g id="Icons/Special-Icons/financial_planing" stroke="none" stroke-width="1" fill="none" fill-rule="evenodd">
        <path d="M78.9038031,39.710031 C81.7048367,39.710031 84.077145,42.1742912 83.7696397,44.9341171 L83.777,44.846 L83.7776631,84.9203723 C83.7776631,87.5040421 81.6393759,89.764654 79.0850142,89.982782 L78.8712245,89.9961945 L78.6814662,90 L48.4436414,90 C45.7150144,90 43.3474445,87.6390354 43.3474445,84.9203723 L43.3474445,84.9203723 L43.3474445,44.7896587 C43.3474445,42.0709956 45.7150144,39.710031 48.4436414,39.710031 L48.4436414,39.710031 Z M78.4591292,10 C81.4988581,10 83.8915744,12.4045568 83.9964162,15.3232824 L84,15.523061 L84,36.3644261 C84,37.0881647 83.4105969,37.6748707 82.6835312,37.6748707 C81.9992342,37.6748707 81.4368804,37.1551588 81.3730889,36.4906306 L81.3670625,36.3644261 L81.367,33.462 L62.0061951,33.4622544 C61.3218981,33.4622544 60.7595443,32.9425424 60.6957528,32.2780143 L60.6897264,32.1518097 L60.689,12.62 L31.7683703,12.6208893 L31.75,12.621 L31.7508174,21.0659772 C31.7508174,23.7199103 29.7065223,25.8216909 27.0708462,25.9202712 L26.8769575,25.9238883 L18.632,25.923 L18.6329375,83.811789 C18.6329375,85.3396155 19.8226463,86.6226291 21.3733773,86.7092962 L21.5408708,86.7139607 L36.4374462,86.7139607 C37.1645118,86.7139607 37.753915,87.3006668 37.753915,88.0244054 C37.753915,88.7055711 37.2318139,89.2653516 36.564231,89.3288512 L36.4374462,89.3348501 L21.5408708,89.3348501 C18.5011419,89.3348501 16.1084256,86.9302932 16.0035838,84.0115676 L16,83.811789 L16,25.7220269 C16,24.4860981 16.3418853,23.3860581 17.1139284,22.5261083 L17.2740986,22.3573504 L28.3909459,11.2715179 C28.4522128,11.2104219 28.5193946,11.1555016 28.5915121,11.1075574 C29.542626,10.4752505 30.5184309,10.0665619 31.517987,10.0074282 L31.7683703,10 L78.4591292,10 Z M78.9038031,42.3309204 L48.4436414,42.3309204 C47.1702033,42.3309204 45.980382,43.5174221 45.980382,44.7896587 L45.980382,44.7896587 L45.980382,84.9203723 C45.980382,86.1926089 47.1702033,87.3791107 48.4436414,87.3791107 L48.4436414,87.3791107 L78.6814662,87.3791107 C79.9549043,87.3791107 81.1447255,86.1926089 81.1447255,84.9203723 L81.1447255,84.9203723 L81.1447255,44.7896587 L81.1621363,44.5158952 C81.2003428,43.3967982 80.1288647,42.3309204 78.9038031,42.3309204 L78.9038031,42.3309204 Z M60.4974801,64.6614271 C60.6091948,64.6614271 60.7176594,64.6752785 60.8212352,64.7013501 C66.0523061,65.1666864 70.1515844,69.5592894 70.1515844,74.9067218 C70.1515844,80.5636453 65.5640704,85.1520165 59.9019348,85.1520165 C54.2397992,85.1520165 49.6522851,80.5636453 49.6522851,74.9067218 C49.6522851,69.2497983 54.2397992,64.6614271 59.9019348,64.6614271 C60.0492177,64.6614271 60.1957735,64.6645317 60.3415404,64.6706789 C60.3926413,64.6645192 60.444698,64.6614271 60.4974801,64.6614271 Z M75.7593235,79.1722854 C76.7287443,79.1722854 77.5146151,79.9559638 77.5146151,80.92268 C77.5146151,81.8893963 76.7287443,82.6730746 75.7593235,82.6730746 C74.7899026,82.6730746 74.0040318,81.8893963 74.0040318,80.92268 C74.0040318,79.9559638 74.7899026,79.1722854 75.7593235,79.1722854 Z M61.813163,67.5243737 L61.8139489,75.1846949 L61.8139159,75.2087863 C61.8133908,75.2387678 61.8118311,75.2687797 61.8092246,75.2987677 L61.8139489,75.1846949 C61.8139489,75.2379315 61.8107598,75.2904266 61.8045614,75.3420012 C61.8472213,75.68922 61.7508662,76.0535602 61.5068374,76.3436667 C61.3948343,76.4768183 61.2618998,76.5822331 61.1168261,76.659136 L57.5961968,82.1754874 C58.3236072,82.4065031 59.0982775,82.5311272 59.9019348,82.5311272 C64.1071183,82.5311272 67.5186469,79.1189612 67.5186469,74.9067218 C67.5186469,71.3555897 65.0939549,68.3730976 61.813163,67.5243737 Z M53.2571661,71.1770081 C52.6382521,72.2794851 52.2852226,73.5517071 52.2852226,74.9067218 C52.2852226,77.3684499 53.4504297,79.5569131 55.2582914,80.950713 L58.635,75.659 Z M75.7593235,73.2157187 C76.7287443,73.2157187 77.5146151,73.9993971 77.5146151,74.9661133 C77.5146151,75.9328296 76.7287443,76.7165079 75.7593235,76.7165079 C74.7899026,76.7165079 74.0040318,75.9328296 74.0040318,74.9661133 C74.0040318,73.9993971 74.7899026,73.2157187 75.7593235,73.2157187 Z M36.2151093,72.7458118 C36.9421749,72.7458118 37.531578,73.3325179 37.531578,74.0562565 C37.531578,74.7374222 37.009477,75.2972027 36.341894,75.3607023 L36.2151093,75.3667011 L26.8769575,75.3667011 C26.1498919,75.3667011 25.5604887,74.7799951 25.5604887,74.0562565 C25.5604887,73.3750907 26.0825898,72.8153102 26.7501728,72.7518106 L26.8769575,72.7458118 L36.2151093,72.7458118 Z M59.1815293,67.3159811 C57.5581083,67.4684673 56.0824885,68.1310774 54.9166214,69.1422175 L59.181,72.696 Z M75.7593235,67.259152 C76.7287443,67.259152 77.5146151,68.0428304 77.5146151,69.0095466 C77.5146151,69.9762629 76.7287443,70.7599412 75.7593235,70.7599412 C74.7899026,70.7599412 74.0040318,69.9762629 74.0040318,69.0095466 C74.0040318,68.0428304 74.7899026,67.259152 75.7593235,67.259152 Z M36.2151093,62.3251293 C36.9421749,62.3251293 37.531578,62.9118353 37.531578,63.6355739 C37.531578,64.3167397 37.009477,64.8765202 36.341894,64.9400198 L36.2151093,64.9460186 L26.8769575,64.9460186 C26.1498919,64.9460186 25.5604887,64.3593125 25.5604887,63.6355739 C25.5604887,62.9544082 26.0825898,62.3946277 26.7501728,62.3311281 L26.8769575,62.3251293 L36.2151093,62.3251293 Z M54.5420262,45.6004137 C55.2263233,45.6004137 55.7886771,46.1201256 55.8524685,46.7846538 L55.858495,46.9108583 L55.8583738,48.1452883 C56.0240087,48.1918039 56.189917,48.2475922 56.356556,48.3116961 C56.704936,48.4457134 56.9585966,48.5704462 57.3521416,48.7823946 C57.9916129,49.1267896 58.229536,49.9219987 57.8835578,50.5585438 C57.5375796,51.1950889 56.738715,51.4319233 56.0992437,51.0875282 C55.4934902,50.7612923 55.0844237,50.6039297 54.7405413,50.6039297 C54.1092903,50.6039297 53.8733437,50.8411306 53.8733437,51.4317397 C53.8733437,51.6463141 54.0046538,51.7961561 54.5520029,52.0556657 L54.9320697,52.2278372 C55.0111401,52.266719 55.0721564,52.3087397 54.8957372,52.285479 L54.7405413,52.2595498 L55.2634674,52.367368 L55.7021879,52.5554065 C57.3561818,53.2765129 58.2406765,54.0931222 58.2406765,55.7082491 C58.2406765,57.3033404 57.2575077,58.4166049 55.858706,58.7981071 L55.858495,60.0153051 C55.858495,60.7390437 55.2690918,61.3257497 54.5420262,61.3257497 C53.8577291,61.3257497 53.2953753,60.8060378 53.2315839,60.1415096 L53.2255574,60.0153051 L53.2246927,58.6977633 C52.4049582,58.4331575 51.6809002,57.9784689 51.1930159,57.4529569 C50.6995526,56.9214355 50.7323855,56.0923518 51.2663502,55.6011465 C51.7669422,55.1406415 52.5302658,55.140585 53.0303271,55.5803368 L53.1266733,55.6741452 C53.4240492,55.994456 54.1087426,56.3222337 54.7405413,56.3222337 C55.3573042,56.3222337 55.607739,56.1199217 55.607739,55.7082491 C55.607739,55.477169 55.4554503,55.3211632 54.7952536,55.0224102 L54.549013,54.9121517 C54.4699426,54.8732698 54.4089263,54.8312491 54.5853455,54.8545098 L54.7405413,54.8804391 L54.2176152,54.7726209 L53.7788947,54.5845823 C52.1249009,53.8634759 51.2404061,53.0468667 51.2404061,51.4317397 C51.2404061,49.9417872 51.9976575,48.7828868 53.2258712,48.2704491 L53.2255574,46.9108583 C53.2255574,46.1871197 53.8149606,45.6004137 54.5420262,45.6004137 Z M75.9816604,55.1309204 C76.708726,55.1309204 77.2981292,55.7176264 77.2981292,56.441365 C77.2981292,57.1225308 76.7760281,57.6823113 76.1084451,57.7458109 L75.9816604,57.7518097 L64.0707525,57.7518097 C63.3436869,57.7518097 62.7542837,57.1651037 62.7542837,56.441365 C62.7542837,55.7601993 63.2763848,55.2004188 63.9439678,55.1369192 L64.0707525,55.1309204 L75.9816604,55.1309204 Z M36.2151093,51.6827301 C36.9421749,51.6827301 37.531578,52.2694362 37.531578,52.9931748 C37.531578,53.6743405 37.009477,54.234121 36.341894,54.2976206 L36.2151093,54.3036194 L26.8769575,54.3036194 C26.1498919,54.3036194 25.5604887,53.7169134 25.5604887,52.9931748 C25.5604887,52.312009 26.0825898,51.7522285 26.7501728,51.6887289 L26.8769575,51.6827301 L36.2151093,51.6827301 Z M75.9816604,47.9830403 C76.708726,47.9830403 77.2981292,48.5697464 77.2981292,49.293485 C77.2981292,49.9746508 76.7760281,50.5344313 76.1084451,50.5979308 L75.9816604,50.6039297 L64.0707525,50.6039297 C63.3436869,50.6039297 62.7542837,50.0172236 62.7542837,49.293485 C62.7542837,48.6123193 63.2763848,48.0525387 63.9439678,47.9890392 L64.0707525,47.9830403 L75.9816604,47.9830403 Z M36.2151093,41.2620476 C36.9421749,41.2620476 37.531578,41.8487536 37.531578,42.5724922 C37.531578,43.253658 37.009477,43.8134385 36.341894,43.8769381 L36.2151093,43.8829369 L26.8769575,43.8829369 C26.1498919,43.8829369 25.5604887,43.2962309 25.5604887,42.5724922 C25.5604887,41.8913265 26.0825898,41.331546 26.7501728,41.2680464 L26.8769575,41.2620476 L36.2151093,41.2620476 Z M53.5573912,30.841365 C54.2844568,30.841365 54.8738599,31.4280711 54.8738599,32.1518097 C54.8738599,32.8329755 54.3517589,33.392756 53.6841759,33.4562555 L53.5573912,33.4622544 L26.8769575,33.4622544 C26.1498919,33.4622544 25.5604887,32.8755483 25.5604887,32.1518097 C25.5604887,31.470644 26.0825898,30.9108635 26.7501728,30.8473639 L26.8769575,30.841365 L53.5573912,30.841365 Z M78.4591292,12.6208893 L63.322,12.62 L63.3223714,30.8412327 L81.367,30.841 L81.3670625,15.523061 C81.3670625,13.9952346 80.1773537,12.7122209 78.6266227,12.6255539 L78.4591292,12.6208893 Z M71.8128426,15.8175801 C74.1858719,15.8175801 76.1070384,17.7391056 76.1070384,20.1063082 C76.1070384,21.1959653 75.6999639,22.1911882 75.0291244,22.9480291 C76.0364792,23.7515063 76.8247815,24.9173459 77.2409359,26.2764712 C77.452912,26.9687674 77.0609557,27.7010386 76.3654771,27.9120447 C75.6699984,28.1230508 74.934361,27.7328881 74.7223849,27.0405919 C74.2393705,25.4631073 73.0184373,24.3950362 71.8128426,24.3950362 C70.607248,24.3950362 69.3863148,25.4631073 68.9033004,27.0405919 C68.6913243,27.7328881 67.9556869,28.1230508 67.2602082,27.9120447 C66.5647296,27.7010386 66.1727733,26.9687674 66.3847494,26.2764712 C66.8008601,24.9174884 67.5890407,23.7517508 68.5972529,22.9471453 C67.9257214,22.1911882 67.5186469,21.1959653 67.5186469,20.1063082 C67.5186469,17.7391056 69.4398134,15.8175801 71.8128426,15.8175801 Z M29.117,14.254 L20.045,23.302 L26.8769575,23.302999 C28.0994581,23.302999 29.0399916,22.413853 29.1132783,21.2171278 L29.1178799,21.0659772 L29.117,14.254 Z M71.8128426,18.4384695 C70.8967655,18.4384695 70.1515844,19.1837898 70.1515844,20.1063082 C70.1515844,21.0288266 70.8967655,21.7741468 71.8128426,21.7741468 C72.7289198,21.7741468 73.4741008,21.0288266 73.4741008,20.1063082 C73.4741008,19.1837898 72.7289198,18.4384695 71.8128426,18.4384695 Z" id="Combined-Shape" fill="#1F1B50"></path>
    </g>
</svg>