<?xml version="1.0" encoding="UTF-8"?>
<svg width="100px" height="100px" viewBox="0 0 100 100" version="1.1" xmlns="http://www.w3.org/2000/svg" xmlns:xlink="http://www.w3.org/1999/xlink">
    <!-- Generator: Sketch 61.2 (89653) - https://sketch.com -->
    <title>Icons/Special Icons/insurance</title>
    <desc>Created with Sketch.</desc>
    <g id="Icons/Special-Icons/insurance" stroke="none" stroke-width="1" fill="none" fill-rule="evenodd">
        <path d="M57.4291978,23.6362157 C58.7426969,22.741787 60.5191294,22.7757777 62.1897398,23.6255449 L62.1897398,23.6255449 L62.3170256,23.6995097 C68.3306144,27.6580246 77.0209723,32.0161742 83.6088841,33.6474762 C85.7205402,34.2612523 87,35.9099603 87,38.0899979 L87,38.0899979 L87,58.7642363 C87,65.1552373 84.8979909,71.081666 80.9397322,75.8190627 C74.7519411,83.1993173 64.420188,90 59.8012505,90 L59.8012505,90 L59.606921,89.9954489 C54.7916041,89.7890563 44.7005301,83.1621633 38.7185043,75.8173124 L38.7185043,75.8173124 L38.4357394,75.472559 C36.939949,73.6146911 35.7146565,71.5393646 34.7835809,69.3264536 L22.9402985,69.3260755 C22.2083151,69.3260755 21.6149254,68.7224121 21.6149254,67.9777556 C21.6149254,67.2769024 22.1405578,66.7009428 22.8126562,66.635608 L22.9402985,66.6294357 L33.8149951,66.6299127 C33.2683911,64.8099266 32.910334,62.9242029 32.7524304,61.0118259 L22.9402985,61.0114362 C22.2083151,61.0114362 21.6149254,60.4077728 21.6149254,59.6631163 C21.6149254,58.9622631 22.1405578,58.3863034 22.8126562,58.3209686 L22.9402985,58.3147964 L32.659,58.314 L32.659,52.472 L22.9402985,52.4720768 C22.2083151,52.4720768 21.6149254,51.8684134 21.6149254,51.1237569 C21.6149254,50.4229037 22.1405578,49.8469441 22.8126562,49.7816092 L22.9402985,49.775437 L32.659,49.775 L32.659,44.157 L22.9402985,44.1574374 C22.2083151,44.1574374 21.6149254,43.553774 21.6149254,42.8091175 C21.6149254,42.1082643 22.1405578,41.5323047 22.8126562,41.4669699 L22.9402985,41.4607976 L32.659,41.46 L32.6597015,38.0899979 C32.6597015,36.0716449 33.9446618,34.4472521 35.7886539,33.7396165 L35.9958056,33.6647895 L36.1016713,33.6337994 C37.6567027,33.2489997 39.3359744,32.7039252 41.123508,32.0132065 C43.4996565,31.0950419 46.0189671,29.9392852 48.6533146,28.5868933 C51.2165469,27.2710097 53.2111561,26.1502294 55.9520002,24.5264148 L55.9520002,24.5264148 L57.3452179,23.6962335 Z M60.8349706,25.9560494 C59.995689,25.575659 59.2705508,25.5953364 58.8579104,25.9101748 L58.8579104,25.9101748 L58.7346774,25.9936819 C55.4988083,27.9300896 53.3439729,29.1723087 50.700411,30.5528389 L50.700411,30.5528389 L49.8475254,30.9943642 C47.1362441,32.3862516 44.5350807,33.5795589 42.0647376,34.5341212 C40.1800965,35.2623631 38.3977588,35.8408917 36.7281794,36.2540369 L36.787,36.239 L36.672066,36.2832125 C35.9375353,36.5807691 35.4499966,37.1287265 35.3360703,37.7886149 L35.3164695,37.9428207 L35.3104478,38.0899979 L35.3104478,58.7642363 C35.3104478,61.6327244 35.814706,64.4726913 36.7749971,67.123888 C36.9510734,67.3383382 37.0605882,67.6096892 37.0757897,67.9064375 C37.9761524,70.1505582 39.2113263,72.2434932 40.7489241,74.0838229 L40.7489241,74.0838229 L41.0082754,74.3984328 C46.5989417,81.1001161 55.8440664,87.1351388 59.6913127,87.3003181 L59.6913127,87.3003181 L59.8298507,87.3036742 C63.4728921,87.3036742 73.1892103,80.9077947 78.9214894,74.0708378 C82.4672294,69.8271567 84.3492537,64.5209556 84.3492537,58.7642363 L84.3492537,58.7642363 L84.3492537,38.0899979 C84.3492537,37.138937 83.8765617,36.5298274 82.9315221,36.2540369 C76.0501872,34.5512188 67.1183665,30.0719773 60.8770043,25.963528 L60.9511164,26.0117482 Z M68.4447761,10 C71.2560528,10 73.4225711,12.2265809 73.521819,14.9716263 L73.5253731,15.1685596 L73.5253731,23.707919 C73.5253731,24.4525755 72.9319834,25.0562389 72.2,25.0562389 C71.5110745,25.0562389 70.944917,24.5215059 70.8806941,23.8377712 L70.8746269,23.707919 L70.8746269,15.1685596 C70.8746269,13.8498323 69.9099024,12.7786706 68.597692,12.7011343 L68.4447761,12.6966398 L27.358209,12.6966398 L27.358209,20.1123992 C27.358209,22.5879099 25.5391048,24.503654 23.1363695,24.6027683 L22.9402985,24.6067989 L15.6507463,24.6067989 L15.6507463,76.9665549 C15.6507463,78.2852822 16.6154707,79.3564439 17.9276811,79.4339803 L18.080597,79.4384748 L36.6358209,79.4384748 C37.3678043,79.4384748 37.961194,80.0421381 37.961194,80.7867947 C37.961194,81.4876479 37.4355616,82.0636075 36.7634632,82.1289423 L36.6358209,82.1351146 L18.080597,82.1351146 C15.2693203,82.1351146 13.102802,79.9085336 13.0035542,77.1634883 L13,76.9665549 L13,24.6067989 C13,23.3975589 13.3331365,22.4408305 14.1103733,21.5776325 L14.2717749,21.4061929 L24.2120734,11.2937937 C25.0490168,10.4423599 25.9674806,10.0502411 27.1237401,10.0045522 L27.358209,10 L68.4447761,10 Z M67.958806,78.4047628 C68.397996,79.0004881 68.279318,79.8456168 67.6937313,80.2924107 C66.677666,81.0676534 65.969065,81.5310694 65.0613816,81.9927686 C64.4066758,82.3257892 63.6105599,82.0558227 63.2832069,81.3897816 C62.955854,80.7237406 63.221226,79.9138412 63.8759318,79.5808207 C64.6249648,79.19982 65.204921,78.8205361 66.1032836,78.1350989 C66.6888703,77.6883049 67.5196159,77.8090376 67.958806,78.4047628 Z M76.8357539,70.1160885 C77.3828451,70.6108114 77.4321234,71.4630472 76.9458201,72.0196104 C74.9563992,74.296458 73.1660558,76.0626064 71.2465362,77.5814143 C70.6687435,78.0385892 69.8360439,77.9326996 69.3866496,77.3449033 C68.9372553,76.7571071 69.0413427,75.9099906 69.6191354,75.4528157 C71.3967094,74.0463214 73.0749077,72.3908026 74.9646276,70.2280604 C75.4509309,69.6714972 76.2886627,69.6213657 76.8357539,70.1160885 Z M68.8329689,47.6984309 C70.4550369,46.0482794 72.8404854,46.0482794 74.4625535,47.6984309 L74.4107224,47.6486871 L74.5031573,47.7279479 C76.0529751,49.1386255 76.0559098,51.6479826 74.6030238,53.275543 L74.6030238,53.275543 L74.4625535,53.4254829 L60.7670311,67.3581219 C58.9240675,69.2329935 55.8759325,69.2329935 54.0329689,67.3581219 L54.0329689,67.3581219 L46.7434167,59.9423624 C45.1213487,58.2922109 45.1213487,55.865462 46.7434167,54.2153104 C48.3654847,52.5651589 50.7509332,52.5651589 52.3730012,54.2153104 L52.3730012,54.2153104 L57.4,59.3296318 Z M72.4834256,49.5060795 C71.9185346,49.0102609 71.259694,49.0433155 70.7073296,49.6052432 L70.7073296,49.6052432 L58.3371803,62.1895623 C57.8195899,62.7161139 56.9804101,62.7161139 56.4628197,62.1895623 L56.4628197,62.1895623 L50.4986406,56.1221227 C49.9117534,55.5250745 49.2046646,55.5250745 48.6177773,56.1221227 C48.0308901,56.719171 48.0308901,57.4385019 48.6177773,58.0355502 L48.6177773,58.0355502 L55.9073296,65.4513096 C56.7151123,66.2730778 58.0848877,66.2730778 58.8926704,65.4513096 L58.8926704,65.4513096 L72.5881928,51.5186707 C73.1568756,50.940142 73.1568756,50.0786271 72.6974191,49.704698 L72.6974191,49.704698 Z M43.7854498,37.9364509 C44.1128027,38.6024919 43.8474307,39.4123913 43.1927249,39.7454118 C43.021786,39.832361 42.8494213,39.9008567 42.6639824,39.9598097 L42.4477762,40.0231367 L42.0884934,40.1169603 C41.9963725,40.142423 41.9423893,40.1605791 41.8986609,40.1799565 L41.6937467,40.2680064 C40.8099879,40.5676929 40.2401524,41.2109149 40.1761709,41.9877804 L40.1701493,42.1349576 L40.1701493,45.5057573 C40.1701493,46.2504138 39.5767595,46.8540772 38.8447761,46.8540772 C38.1558506,46.8540772 37.5896931,46.3193443 37.5254702,45.6356095 L37.519403,45.5057573 L37.519403,42.1349576 C37.519403,40.1140269 38.8076475,38.4880633 40.6554232,37.7818694 L40.7656836,37.7412325 L40.8051553,37.7227833 C41.0048789,37.6298951 41.1832126,37.5705865 41.4467,37.5000923 L41.8372072,37.3970513 L41.8733311,37.385921 C41.9116952,37.3737246 41.9432474,37.3622025 41.9701465,37.3507251 L42.0072751,37.3334639 C42.6619809,37.0004433 43.4580969,37.2704098 43.7854498,37.9364509 Z M49.7496289,35.464531 C50.0769818,36.1305721 49.8116098,36.9404715 49.156904,37.273492 L48.9869839,37.3567868 C48.900865,37.3973387 48.8095468,37.437833 48.6974539,37.485404 L47.9277769,37.8031689 C47.8244553,37.8470149 47.7433514,37.8831549 47.6750365,37.9158911 L47.6106353,37.947652 C46.9559295,38.2806725 46.1598136,38.010706 45.8324607,37.344665 C45.5051078,36.6786239 45.7704797,35.8687245 46.4251856,35.535704 L46.6366299,35.4333928 C46.7106726,35.3992632 46.7898121,35.3643655 46.8786549,35.326472 L47.6408361,35.0117297 C47.7910744,34.9483701 47.8848691,34.9055861 47.9714542,34.8615441 C48.62616,34.5285235 49.422276,34.79849 49.7496289,35.464531 Z M24.707,14.603 L17.525,21.91 L22.9402985,21.9101591 C23.9284256,21.9101591 24.6402923,21.2316601 24.7029659,20.2540514 L24.7074627,20.1123992 L24.707,14.603 Z" id="Combined-Shape" fill="#1F1B50"></path>
    </g>
</svg>