<?xml version="1.0" encoding="UTF-8"?>
<svg width="100px" height="100px" viewBox="0 0 100 100" version="1.1" xmlns="http://www.w3.org/2000/svg" xmlns:xlink="http://www.w3.org/1999/xlink">
    <!-- Generator: Sketch 61.2 (89653) - https://sketch.com -->
    <title>Icons/Special Icons/mortgage_hover</title>
    <desc>Created with Sketch.</desc>
    <g id="Icons/Special-Icons/mortgage_hover" stroke="none" stroke-width="1" fill="none" fill-rule="evenodd">
        <g id="hover" transform="translate(9.000000, 13.000000)">
            <path d="M7.5347195,16.5932722 C3.48727882,16.5932722 -9.85878046e-14,28.4584525 -9.85878046e-14,36.4853865 C-9.85878046e-14,40.8875855 3.43468618,44.5604032 7.5347195,44.5604032 C11.6347528,44.5604032 15.069439,40.8875855 15.069439,36.4853865 C15.069439,28.4584525 11.5821602,16.5932722 7.5347195,16.5932722 Z" id="Path" fill="#CBE899" fill-rule="nonzero"></path>
            <path d="M79.4387755,23.8899083 C75.9967232,23.8899083 73.4693878,33.5724821 73.4693878,40.5155429 C73.4693878,44.433446 76.069942,47.5963303 79.4387755,47.5963303 C82.759539,47.5963303 85.4081633,44.2944479 85.4081633,40.5155429 C85.4081633,33.7006129 82.8675469,23.8899083 79.4387755,23.8899083 Z" id="Path" fill="#49AF00" fill-rule="nonzero"></path>
            <polygon id="Path-6" fill="#97D134" points="27.2244898 1.46396306e-13 27.2244898 58.266055 63.9814472 58.266055 63.9814472 15.733945 42.1479592 5.64384098 35.0304658 8.18200962 35.0304658 0.264625376"></polygon>
            <path d="M43.5344458,15.7373587 C47.2523116,15.84399 50.2265129,18.437779 50.9391386,21.9821437 L50.9863265,22.2415902 L35.6045918,22.2415902 L35.6085569,22.219826 C36.2465241,18.4779214 39.3839219,15.733945 43.2959184,15.733945 L43.5344458,15.7373587 Z" id="Path" fill="#CBE899" fill-rule="nonzero"></path>
            <path d="M43.278832,34.3271099 L43.5331018,34.3303027 L43.7780375,34.3398655 C47.8444488,34.5552695 51.1020408,37.5570405 51.1020408,41.1217508 L51.1020408,57.1039755 L35.4897959,57.1039755 L35.4897959,41.1217508 C35.4897959,37.4115616 38.7424459,34.4411886 43.0464591,34.3304199 L43.278832,34.3271099 Z" id="Path" fill="#49AF00" fill-rule="nonzero"></path>
            <path d="M49.0109533,57.1039755 L53.3976244,57.1039755 L53.3976244,39.5526214 C52.7727221,38.0864879 52.0055284,36.9103744 51.0960433,36.0242809 C50.1865582,35.1381875 46.8086181,34.0503304 40.962223,32.7607097 C46.3280432,35.5330917 49.0109533,38.293036 49.0109533,41.0405426 C49.0109533,43.7880493 49.0109533,49.1425269 49.0109533,57.1039755 Z" id="Path-7" fill="#339709"></path>
        </g>
        <path d="M27.0408163,85.2110092 C27.8016167,85.2110092 28.4183673,85.835346 28.4183673,86.6055046 C28.4183673,87.3303597 27.8720416,87.926044 27.1734837,87.9936164 L27.0408163,88 L24.744898,88 C23.9840975,88 23.3673469,87.3756631 23.3673469,86.6055046 C23.3673469,85.8806495 23.9136727,85.2849651 24.6122306,85.2173928 L24.744898,85.2110092 L27.0408163,85.2110092 Z M75.255102,85.2110092 C76.0159025,85.2110092 76.6326531,85.835346 76.6326531,86.6055046 C76.6326531,87.3303597 76.0863273,87.926044 75.3877694,87.9936164 L75.255102,88 L31.6326531,88 C30.8718526,88 30.255102,87.3756631 30.255102,86.6055046 C30.255102,85.8806495 30.8014278,85.2849651 31.4999857,85.2173928 L31.6326531,85.2110092 L75.255102,85.2110092 Z M59.1836735,78.2385321 C59.9444739,78.2385321 60.5612245,78.862869 60.5612245,79.6330275 C60.5612245,80.3578826 60.0148987,80.953567 59.3163408,81.0211393 L59.1836735,81.0275229 L20.1530612,81.0275229 C19.3922608,81.0275229 18.7755102,80.4031861 18.7755102,79.6330275 C18.7755102,78.9081724 19.321836,78.3124881 20.0203939,78.2449157 L20.1530612,78.2385321 L59.1836735,78.2385321 Z M79.8469388,78.2385321 C80.6077392,78.2385321 81.2244898,78.862869 81.2244898,79.6330275 C81.2244898,80.3578826 80.678164,80.953567 79.9796061,81.0211393 L79.8469388,81.0275229 L63.7755102,81.0275229 C63.0147098,81.0275229 62.3979592,80.4031861 62.3979592,79.6330275 C62.3979592,78.9081724 62.944285,78.3124881 63.6428428,78.2449157 L63.7755102,78.2385321 L79.8469388,78.2385321 Z M43.1122449,12 C43.8730453,12 44.4897959,12.6243369 44.4897959,13.3944954 L44.4897959,13.3944954 L44.489,19.383 L49.0708566,17.0875821 C50.2221118,16.5363488 51.8026136,16.5039233 53.0229366,16.9994037 L53.2473335,17.0984949 L80.4582179,30.7380851 C81.1400122,31.0798378 81.4190366,31.9163851 81.0814365,32.6065657 C80.7636952,33.2561474 80.0129841,33.5445618 79.3573483,33.2913238 L79.2356597,33.2374501 L74.336,30.781 L74.336,71.266 L81.913,71.266 L81.912962,62.9513788 C79.9160144,61.8657484 78.5525088,59.5202786 78.4730559,56.7699631 L78.4693878,56.5155429 C78.4693878,49.5724821 80.9967232,39.8899083 84.4387755,39.8899083 C87.8675469,39.8899083 90.4081633,49.7006129 90.4081633,56.5155429 C90.4081633,60.2068982 87.880844,63.4430783 84.6684749,63.5910485 L84.668,71.266 L93.622449,71.266055 C94.3832494,71.266055 95,71.8903919 95,72.6605505 C95,73.3854056 94.4536742,73.9810899 93.7551163,74.0486623 L93.622449,74.0550459 L6.37755102,74.0550459 C5.6167506,74.0550459 5,73.430709 5,72.6605505 C5,71.9356954 5.54632579,71.340011 6.24488366,71.2724387 L6.37755102,71.266055 L10.739,71.266 L10.7394054,60.8362993 C7.51577926,59.6963941 5.110722,56.452386 5.00371833,52.676769 L5,52.4141793 C5,43.6089322 8.82541474,30.5932722 13.2653061,30.5932722 C17.7051975,30.5932722 21.5306122,43.6089322 21.5306122,52.4141793 C21.5306122,57.2432273 17.7628897,61.2721713 13.2653061,61.2721713 L13.494,61.268 L13.494,71.266 L30.255,71.266 L30.255,29.63 L23.0602587,33.2374501 C22.3784644,33.5792028 21.552082,33.2967463 21.2144819,32.6065657 C20.8967406,31.9569839 21.1252134,31.1777487 21.7216084,30.8034001 L21.8377005,30.7380851 L30.7484239,26.2701058 C30.9138801,26.1297564 31.1123913,26.0280277 31.3304223,25.9786213 L34.846,24.217 L34.8469388,13.3944954 C34.8469388,12.6696403 35.3932646,12.073956 36.0918224,12.0063836 L36.2244898,12 Z M50.4185902,19.5390903 L50.2711431,19.5978599 L33.01,28.249 L33.0102041,70.1039755 L41.734,70.103 L41.7346939,54.1217508 C41.7346939,48.8057012 46.2645951,44.6778134 52.0031043,44.5416938 L52.2959184,44.5382263 L52.5843674,44.5418485 C58.1962234,44.6828433 62.8571429,48.8777308 62.8571429,54.1217508 L62.8571429,54.1217508 L62.857,70.103 L71.5816327,70.1039755 L71.581,29.4 L52.047047,19.6087727 C51.6173227,19.4030161 50.8913318,19.3824404 50.4185902,19.5390903 Z M52.278832,47.3271099 L52.0464591,47.3304199 C47.7424459,47.4411886 44.4897959,50.4115616 44.4897959,54.1217508 L44.4897959,54.1217508 L44.4897959,70.1039755 L60.1020408,70.1039755 L60.1020408,54.1217508 C60.1020408,50.5570405 56.8444488,47.5552695 52.7780375,47.3398655 L52.7780375,47.3398655 L52.5331018,47.3303027 L52.278832,47.3271099 Z M84.433,42.789 L84.4072047,42.8191835 C84.2501957,42.9980426 84.0700807,43.2720994 83.8819946,43.6315743 C83.4145559,44.5249554 82.9500222,45.8402334 82.5354604,47.4284774 C81.7492165,50.4406873 81.2244898,54.1421938 81.2244898,56.5155429 C81.2244898,57.6303669 81.5258513,58.6104083 82.0142981,59.3514578 C82.2207216,58.8415296 82.714429,58.4831804 83.2908163,58.4831804 C84.0068638,58.4831804 84.59531,59.0362262 84.6620613,59.7433766 L84.6683673,59.8776758 L84.6686196,60.7949762 C86.2377335,60.6265198 87.6530612,58.7581241 87.6530612,56.5155429 C87.6530612,54.2332479 87.1244467,50.5257469 86.3414084,47.5020091 C85.9250439,45.8941987 85.4596297,44.560578 84.9915863,43.6524878 C84.7706765,43.2238821 84.5605031,42.9134238 84.3852612,42.7375287 L84.433,42.789 Z M13.2653061,33.382263 C12.5070754,33.382263 10.9915226,35.9923273 9.76422856,40.1680947 C8.56192236,44.258843 7.75510204,49.249037 7.75510204,52.4141793 C7.75510204,54.7224435 8.99552667,56.7531944 10.7393152,57.7775773 L10.7397959,55.2293578 C10.7397959,54.4591992 11.3565465,53.8348624 12.1173469,53.8348624 C12.8333944,53.8348624 13.4218406,54.3879082 13.4885919,55.0950586 L13.494898,55.2293578 L13.4948525,58.4776025 C16.3388795,58.339357 18.7755102,55.6493349 18.7755102,52.4141793 C18.7755102,49.249037 17.9686899,44.258843 16.7663837,40.1680947 C15.5390896,35.9923273 14.0235368,33.382263 13.2653061,33.382263 Z M43.1122449,38.030581 C42.3514445,38.030581 41.7346939,37.4062442 41.7346939,36.6360856 C41.7346939,30.650741 46.3833011,25.9449541 52.2959184,25.9449541 C58.2085356,25.9449541 62.8571429,30.650741 62.8571429,36.6360856 C62.8571429,37.4062442 62.2403923,38.030581 61.4795918,38.030581 L61.4795918,38.030581 Z M45.1164523,33.4671518 C44.8850099,34.0194068 44.713176,34.6061982 44.6085569,35.219826 L44.6085569,35.219826 L44.6045918,35.2415902 L47.745,35.241 Z M59.4754448,33.4672959 L56.846,35.241 L59.9863265,35.2415902 L59.9391386,34.9821437 C59.8330375,34.4544321 59.676803,33.9477923 59.4754448,33.4672959 Z M50.9184265,28.8504308 C49.2302704,29.1405792 47.7466038,29.9580702 46.6312169,31.1370991 L50.918,34.03 Z M53.6734841,28.8504435 L53.673,34.029 L57.9605502,31.1370254 C56.8451874,29.9580534 55.3615745,29.140597 53.6734841,28.8504435 Z M41.7346939,14.7889908 L37.6020408,14.7889908 L37.6020408,22.4986911 L41.7346939,19.8844771 L41.7346939,14.7889908 Z" id="Combined-Shape" fill="#1F1B50"></path>
    </g>
</svg>